# xmcd
#
# Track frame offsets:
#	150
#	13822
#	35348
#	51081
#	68138
#	81653
#	93050
#	110754
#	130233
#	147956
#	166549
#	175407
#	196710
#	210978
#	223453
#	244348
#	254433
#	265427
#	279042
#	290449
#	307109
#
# Disc length: 4245 seconds
#
# Revision: 0
# Processed by: cddbd v1.5.2PL0 Copyright (c) Steve Scherf et al.
# Submitted via: audiograbber 1.83.01
#
DISCID=3c109315
DTITLE=Mr. John Kampen and friends - Mr. John Kampen and friends Vol. 16
DYEAR=2010
DGENRE=Country
TTITLE0=Ruby-Sweddy
TTITLE1=Lord, have mercy on a working Man-Mr. John Kampen
TTITLE2=Daddy´s hands-Mel D
TTITLE3=A beautiful memory-Eddy Gee
TTITLE4=Just another woman in Love-Angie
TTITLE5=Honky Tonk Moon-Joe Harper
TTITLE6=I need more of You-Sweddy
TTITLE7=Seashores of old Mexico-Smokie J. Jones
TTITLE8=Bring it on Home to me-The John Kampen Sellection
TTITLE9=Like two sparrow on a hurricane-Angie
TTITLE10=Sechs Tage in der Woche-Joe Harper
TTITLE11=That Summer-Sweddy
TTITLE12=Crying Time-John Kampen and Sally Parker 
TTITLE13=Sideways-Smokie j. Jones
TTITLE14=Streets of Heaven-Mel D
TTITLE15=Hello Mary Lou-John Kampen and  The Country All Stars
TTITLE16=Dance with the One that brought you-Angie
TTITLE17=Couldn't sleep at all-Eddy Gee
TTITLE18=Why'd You come in here looking like that-Mel D
TTITLE19=The World-Smokie J. Jones
TTITLE20=Rocky Top-Mel D
EXTD=
EXTT0=
EXTT1=
EXTT2=
EXTT3=
EXTT4=
EXTT5=
EXTT6=
EXTT7=
EXTT8=
EXTT9=
EXTT10=
EXTT11=
EXTT12=
EXTT13=
EXTT14=
EXTT15=
EXTT16=
EXTT17=
EXTT18=
EXTT19=
EXTT20=
PLAYORDER=
